HIERARCHY
ROOT hip
{
  OFFSET 0 0 0
  CHANNELS 6 Xposition Yposition Zposition Zrotation Yrotation Xrotation
  JOINT abdomen
  {
    OFFSET 0 20.6881 -0.73152
    CHANNELS 3 Zrotation Xrotation Yrotation
    JOINT chest
    {
      OFFSET 0 11.7043 -0.48768
      CHANNELS 3 Zrotation Xrotation Yrotation
      JOINT neck
      {
        OFFSET 0 22.1894 -2.19456
        CHANNELS 3 Zrotation Xrotation Yrotation
        JOINT head
        {
          OFFSET -0.24384 7.07133 1.2192
          CHANNELS 3 Zrotation Xrotation Yrotation
          JOINT leftEye
          {
            OFFSET 4.14528 8.04674 8.04672
            CHANNELS 3 Zrotation Xrotation Yrotation
            End Site
            {
              OFFSET 1 0 0
            }
          }
          JOINT rightEye
          {
            OFFSET -3.6576 8.04674 8.04672
            CHANNELS 3 Zrotation Xrotation Yrotation
            End Site
            {
              OFFSET 1 0 0
            }
          }
        }
      }
      JOINT rCollar
      {
        OFFSET -2.68224 19.2634 -4.8768
        CHANNELS 3 Zrotation Xrotation Yrotation
        JOINT rShldr
        {
          OFFSET -8.77824 -1.95073 1.46304
          CHANNELS 3 Zrotation Xrotation Yrotation
          JOINT rForeArm
          {
            OFFSET -28.1742 -1.7115 0.48768
            CHANNELS 3 Zrotation Xrotation Yrotation
            JOINT rHand
            {
              OFFSET -22.5879 0.773209 7.07136
              CHANNELS 3 Zrotation Xrotation Yrotation
              JOINT rThumb1
              {
                OFFSET -1.2192 -0.487915 3.41376
                CHANNELS 3 Zrotation Xrotation Yrotation
                JOINT rThumb2
                {
                  OFFSET -3.37035 -0.52449 3.41376
                  CHANNELS 3 Zrotation Xrotation Yrotation
                  End Site
                  {
                    OFFSET -1.78271 -1.18214 1.43049
                  }
                }
              }
              JOINT rIndex1
              {
                OFFSET -7.75947 0.938293 5.60832
                CHANNELS 3 Zrotation Xrotation Yrotation
                JOINT rIndex2
                {
                  OFFSET -2.54057 -0.884171 1.56538
                  CHANNELS 3 Zrotation Xrotation Yrotation
                  End Site
                  {
                    OFFSET -1.62519 -0.234802 1.16502
                  }
                }
              }
              JOINT rMid1
              {
                OFFSET -8.24714 1.18213 3.41376
                CHANNELS 3 Zrotation Xrotation Yrotation
                JOINT rMid2
                {
                  OFFSET -3.10165 -0.590103 1.0647
                  CHANNELS 3 Zrotation Xrotation Yrotation
                  End Site
                  {
                    OFFSET -2.48547 -0.328903 0.83742
                  }
                }
              }
              JOINT rRing1
              {
                OFFSET -8.82822 0.546677 1.51678
                CHANNELS 3 Zrotation Xrotation Yrotation
                JOINT rRing2
                {
                  OFFSET -2.60934 -0.819778 -0.0198488
                  CHANNELS 3 Zrotation Xrotation Yrotation
                  End Site
                  {
                    OFFSET -2.33842 -0.294052 0.168128
                  }
                }
              }
              JOINT rPinky1
              {
                OFFSET -8.27202 -0.0477905 -0.4584
                CHANNELS 3 Zrotation Xrotation Yrotation
                JOINT rPinky2
                {
                  OFFSET -1.82734 -0.647385 -0.700984
                  CHANNELS 3 Zrotation Xrotation Yrotation
                  End Site
                  {
                    OFFSET -1.69225 -0.51767 -0.607171
                  }
                }
              }
            }
          }
        }
      }
      JOINT lCollar
      {
        OFFSET 2.68224 19.2634 -4.8768
        CHANNELS 3 Zrotation Xrotation Yrotation
        JOINT lShldr
        {
          OFFSET 8.77824 -1.95073 1.46304
          CHANNELS 3 Zrotation Xrotation Yrotation
          JOINT lForeArm
          {
            OFFSET 28.1742 -1.7115 0.48768
            CHANNELS 3 Zrotation Xrotation Yrotation
            JOINT lHand
            {
              OFFSET 22.5879 0.773209 7.07136
              CHANNELS 3 Zrotation Xrotation Yrotation
              JOINT lThumb1
              {
                OFFSET 1.2192 -0.487915 3.41376
                CHANNELS 3 Zrotation Xrotation Yrotation
                JOINT lThumb2
                {
                  OFFSET 3.37035 -0.52449 3.41376
                  CHANNELS 3 Zrotation Xrotation Yrotation
                  End Site
                  {
                    OFFSET 1.78271 -1.18214 1.43049
                  }
                }
              }
              JOINT lIndex1
              {
                OFFSET 7.75947 0.938293 5.60832
                CHANNELS 3 Zrotation Xrotation Yrotation
                JOINT lIndex2
                {
                  OFFSET 2.54057 -0.884171 1.56538
                  CHANNELS 3 Zrotation Xrotation Yrotation
                  End Site
                  {
                    OFFSET 1.62519 -0.234802 1.16502
                  }
                }
              }
              JOINT lMid1
              {
                OFFSET 8.24714 1.18213 3.41376
                CHANNELS 3 Zrotation Xrotation Yrotation
                JOINT lMid2
                {
                  OFFSET 3.10165 -0.590103 1.0647
                  CHANNELS 3 Zrotation Xrotation Yrotation
                  End Site
                  {
                    OFFSET 2.48547 -0.328903 0.83742
                  }
                }
              }
              JOINT lRing1
              {
                OFFSET 8.82822 0.546677 1.51678
                CHANNELS 3 Zrotation Xrotation Yrotation
                JOINT lRing2
                {
                  OFFSET 2.60934 -0.819778 -0.0198488
                  CHANNELS 3 Zrotation Xrotation Yrotation
                  End Site
                  {
                    OFFSET 2.33842 -0.294052 0.168128
                  }
                }
              }
              JOINT lPinky1
              {
                OFFSET 8.27202 -0.0477905 -0.4584
                CHANNELS 3 Zrotation Xrotation Yrotation
                JOINT lPinky2
                {
                  OFFSET 1.82734 -0.647385 -0.700984
                  CHANNELS 3 Zrotation Xrotation Yrotation
                  End Site
                  {
                    OFFSET 1.69225 -0.51767 -0.607171
                  }
                }
              }
            }
          }
        }
      }
    }
  }
  JOINT rButtock
  {
    OFFSET -8.77824 4.35084 1.2192
    CHANNELS 3 Zrotation Xrotation Yrotation
    JOINT rThigh
    {
      OFFSET 0 -1.70687 -2.19456
      CHANNELS 3 Zrotation Xrotation Yrotation
      JOINT rShin
      {
        OFFSET 0 -36.8199 0.73152
        CHANNELS 3 Zrotation Xrotation Yrotation
        JOINT rFoot
        {
          OFFSET 0.73152 -45.1104 -5.12064
          CHANNELS 3 Zrotation Xrotation Yrotation
          End Site
          {
            OFFSET -1.1221 -3.69964 12.103
          }
        }
      }
    }
  }
  JOINT lButtock
  {
    OFFSET 8.77824 4.35084 1.2192
    CHANNELS 3 Zrotation Xrotation Yrotation
    JOINT lThigh
    {
      OFFSET 0 -1.70687 -2.19456
      CHANNELS 3 Zrotation Xrotation Yrotation
      JOINT lShin
      {
        OFFSET 0 -36.8199 0.73152
        CHANNELS 3 Zrotation Xrotation Yrotation
        JOINT lFoot
        {
          OFFSET -0.73152 -45.1104 -5.12064
          CHANNELS 3 Zrotation Xrotation Yrotation
          End Site
          {
            OFFSET 1.1221 -3.69964 12.103
          }
        }
      }
    }
  }
}
MOTION
Frames:	7
Frame Time:	0.00833333
37.096 72.7695 -243.645 0.0 0.0 0.0 -2.86914 0.000464657 -0.0776565 -0.791669 0.0137411 -0.136988 7.72273e-14 0.0 6.95747e-16 2.32485e-13 3.18055e-15 2.13383e-15 -0.0 0.0 0.0 -0.0 0.0 0.0 3.89625e-14 1.22687e-16 5.46658e-16 8.14783e-13 2.93829e-15 1.13307e-14 1.39961e-11 -4.11981e-12 1.59028e-14 1.60475e-10 4.67256e-12 1.77475e-12 3.7848e-10 1.19281e-12 3.88346e-12 6.53595e-10 2.061e-12 6.69825e-12 3.78484e-10 1.19032e-12 3.87392e-12 7.73091 5.47488 0.417314 3.78479e-10 1.19241e-12 3.88664e-12 2.90554 0.965183 0.102902 3.78484e-10 1.19291e-12 3.88902e-12 10.2786 0.731801 0.0259123 3.78472e-10 1.19629e-12 3.89936e-12 2.22167 -0.733487 -0.20892 3.87649e-14 1.25017e-16 1.98785e-16 8.12546e-13 2.34814e-15 9.93923e-15 1.40395e-11 4.27387e-12 2.22639e-14 1.60416e-10 -3.75211e-12 1.79383e-12 3.78458e-10 1.13317e-12 3.893e-12 6.53601e-10 1.9624e-12 6.71018e-12 3.78453e-10 1.13506e-12 3.9089e-12 -7.73091 5.47488 -0.417314 3.78459e-10 1.13277e-12 3.88982e-12 -2.90554 0.965183 -0.102902 3.78459e-10 1.13297e-12 3.88902e-12 -10.2786 0.731801 -0.0259123 3.78464e-10 1.13347e-12 3.87073e-12 -2.22167 -0.733487 0.20892 -2.03217e-16 0.0 -3.88251e-19 -1.73891 -1.93252 0.0116965 -0.00843209 -2.07868 -0.0691551 -0.438793 3.99976 0.129513 2.03217e-16 0.0 3.88251e-19 -2.6267 -8.90854 0.290444 -0.00805926 10.5563 -0.206848 0.505153 -1.65912 -0.0231607
34.5388 72.1535 -245.975 -8.007 -8.5565 9.2735 -0.360521 -0.889766 3.38212 -1.25632 -0.385039 0.848138 -0.776776 1.20044 -0.635158 1.45186 -3.50539 -0.943311 -0.0 0.0 0.0 -0.0 0.0 0.0 4.75756e-14 -3.13989e-15 6.97921e-15 20.6317 9.83361 2.87381 -11.3102 -8.21159 13.0841 0.0091969 -2.12756 -0.298265 3.1431e-10 -1.32927e-10 2.75831e-12 5.4286e-10 -2.32264e-10 5.54476e-12 3.14315e-10 -1.32929e-10 2.75051e-12 7.73091 5.47488 0.417314 3.1431e-10 -1.32927e-10 2.75771e-12 2.90554 0.965183 0.102902 3.14315e-10 -1.32927e-10 2.76155e-12 10.2786 0.731801 0.0259123 3.14304e-10 -1.32925e-10 2.76855e-12 2.22167 -0.733487 -0.20892 4.74815e-14 -3.13861e-15 6.66977e-15 -21.4251 -5.7663 5.99535 0.462711 -0.122619 -0.789492 -0.255701 11.2641 -1.47504 4.12894e-10 -9.7945e-11 -6.58887e-11 7.11446e-10 -1.65332e-10 -1.18156e-10 4.12889e-10 -9.7944e-11 -6.58736e-11 -7.73091 5.47488 -0.417314 4.12896e-10 -9.79469e-11 -6.5894e-11 -2.90554 0.965183 -0.102902 4.12895e-10 -9.79463e-11 -6.58924e-11 -10.2786 0.731801 -0.0259123 4.12901e-10 -9.79444e-11 -6.59086e-11 -2.22167 -0.733487 0.20892 -2.03217e-16 0.0 -3.88251e-19 0.804366 3.02131 1.21193 -0.0118296 -1.8615 -0.0975153 -0.457401 4.09887 0.134292 2.03217e-16 0.0 3.88251e-19 1.37887 -20.3876 0.104231 0.0382049 15.4618 -0.20647 0.690763 -7.10847 1.16754
34.6869 72.1645 -244.483 -7.6776 -9.2065 9.3733 2.4388 -1.80231 7.05327 -1.73459 -0.793293 1.89315 -1.58737 2.40897 -1.3028 2.86174 -7.16235 -1.93963 -0.0 0.0 0.0 -0.0 0.0 0.0 6.02213e-14 -1.06114e-14 1.60519e-14 41.2714 20.156 6.26817 -19.1948 -15.4247 27.7015 -0.00523434 -4.37814 -0.615173 2.32063e-10 -1.05754e-10 -3.45685e-11 4.01151e-10 -1.88957e-10 -5.81799e-11 2.3207e-10 -1.05756e-10 -3.45744e-11 7.73091 5.47488 0.417314 2.32064e-10 -1.05754e-10 -3.45732e-11 2.90554 0.965183 0.102902 2.3207e-10 -1.05756e-10 -3.45678e-11 10.2786 0.731801 0.0259123 2.3206e-10 -1.05754e-10 -3.45645e-11 2.22167 -0.733487 -0.20892 6.024e-14 -1.06113e-14 1.57816e-14 -42.7708 -11.6613 12.4911 0.960551 -0.255601 -1.64537 0.155415 23.1909 -3.24302 4.63666e-10 -2.13788e-10 -1.70702e-10 7.96658e-10 -3.60216e-10 -3.04132e-10 4.63661e-10 -2.13788e-10 -1.70687e-10 -7.73091 5.47488 -0.417314 4.63668e-10 -2.13792e-10 -1.7071e-10 -2.90554 0.965183 -0.102902 4.63666e-10 -2.13791e-10 -1.70705e-10 -10.2786 0.731801 -0.0259123 4.63675e-10 -2.13787e-10 -1.70719e-10 -2.22167 -0.733487 0.20892 -2.03217e-16 0.0 -3.88251e-19 3.30091 8.20372 2.51217 -0.0152617 -1.63333 -0.128109 -0.477302 4.20436 0.139392 2.03217e-16 0.0 3.88251e-19 5.5693 -32.5399 -0.199182 0.0865344 20.6281 -0.208552 1.13923 -13.0945 2.43783
34.9348 72.2413 -242.935 -6.7292 -9.8407 9.2284 4.9776 -2.63174 10.3114 -2.14449 -1.1813 2.81893 -2.25036 3.59955 -1.90882 4.00445 -10.5047 -2.87283 -0.0 0.0 0.0 -0.0 0.0 0.0 6.4802e-14 -9.66505e-15 1.98443e-14 58.584 29.1817 9.74082 -23.1336 -19.4288 41.6866 -0.0392119 -6.38199 -0.899754 1.85969e-10 -4.01166e-10 5.08003e-13 3.21389e-10 -7.00914e-10 3.23776e-12 1.85977e-10 -4.01167e-10 5.03691e-13 7.73091 5.47488 0.417314 1.85971e-10 -4.01165e-10 4.99843e-13 2.90554 0.965183 0.102902 1.85977e-10 -4.01167e-10 5.06598e-13 10.2786 0.731801 0.0259123 1.85968e-10 -4.01167e-10 5.06928e-13 2.22167 -0.733487 -0.20892 6.49147e-14 -9.66588e-15 1.96117e-14 -60.5909 -16.5271 18.6938 1.378 -0.367576 -2.36852 1.26872 33.6933 -5.21828 4.81766e-10 -2.96101e-10 -2.05452e-10 8.27137e-10 -4.99921e-10 -3.67888e-10 4.81761e-10 -2.96102e-10 -2.05439e-10 -7.73091 5.47488 -0.417314 4.81768e-10 -2.96106e-10 -2.05462e-10 -2.90554 0.965183 -0.102902 4.81766e-10 -2.96105e-10 -2.05455e-10 -10.2786 0.731801 -0.0259123 4.81777e-10 -2.961e-10 -2.05467e-10 -2.22167 -0.733487 0.20892 -2.03217e-16 0.0 -3.88251e-19 5.25573 12.9049 3.70096 -0.0179793 -1.42715 -0.15422 -0.494667 4.29707 0.143854 2.03217e-16 0.0 3.88251e-19 9.10602 -43.3449 -0.386085 0.131234 25.2729 -0.21044 1.77142 -17.9764 3.70299
35.1729 72.2471 -241.363 -6.1597 -9.7088 9.0763 6.64797 -3.28899 12.5286 -2.41063 -1.51986 3.44617 -2.59322 4.74669 -2.35849 4.71302 -13.0702 -3.61148 -0.0 0.0 0.0 -0.0 0.0 0.0 4.92205e-14 1.23262e-14 1.04362e-14 70.1559 35.2987 12.2937 -24.6606 -20.3857 51.7722 -0.0746164 -7.76966 -1.09877 2.30258e-10 -1.50304e-09 2.16593e-10 3.96492e-10 -2.60103e-09 3.77511e-10 2.30266e-10 -1.50304e-09 2.16589e-10 7.73091 5.47488 0.417314 2.3026e-10 -1.50304e-09 2.16583e-10 2.90554 0.965183 0.102902 2.30266e-10 -1.50304e-09 2.1659e-10 10.2786 0.731801 0.0259123 2.30257e-10 -1.50304e-09 2.16589e-10 2.22167 -0.733487 -0.20892 4.938e-14 1.23246e-14 1.02374e-14 -72.198 -19.5344 23.4885 1.60245 -0.427348 -2.75981 2.58276 40.7299 -6.9505 4.18186e-10 -2.94589e-10 -6.50455e-11 7.20787e-10 -5.01682e-10 -1.26092e-10 4.18182e-10 -2.94591e-10 -6.50328e-11 -7.73091 5.47488 -0.417314 4.18188e-10 -2.94595e-10 -6.50551e-11 -2.90554 0.965183 -0.102902 4.18185e-10 -2.94593e-10 -6.50479e-11 -10.2786 0.731801 -0.0259123 4.18197e-10 -2.94588e-10 -6.50582e-11 -2.22167 -0.733487 0.20892 -2.03217e-16 0.0 -3.88251e-19 6.30609 16.4269 4.5251 -0.0193823 -1.27594 -0.169137 -0.505657 4.3578 0.146716 2.03217e-16 0.0 3.88251e-19 11.453 -50.7833 -0.0185732 0.165487 28.6139 -0.208176 2.32052 -20.1265 4.7922
35.3695 72.218 -239.757 -5.8846 -9.3652 8.9663 7.09597 -3.73106 13.3153 -2.49887 -1.82365 3.6638 -2.46916 5.9399 -2.59592 4.86213 -14.6157 -4.08261 -0.0 0.0 0.0 -0.0 0.0 0.0 -5.09366e-15 8.34273e-14 -1.97088e-14 75.1367 37.6338 12.6376 -25.1531 -20.3945 55.9182 -0.0898511 -8.25115 -1.16833 4.26537e-10 -4.28066e-09 8.64239e-10 7.31021e-10 -7.38396e-09 1.49779e-09 4.26545e-10 -4.28066e-09 8.64236e-10 7.73091 5.47488 0.417314 4.26539e-10 -4.28065e-09 8.64231e-10 2.90554 0.965183 0.102902 4.26545e-10 -4.28066e-09 8.64237e-10 10.2786 0.731801 0.0259123 4.26537e-10 -4.28066e-09 8.64238e-10 2.22167 -0.733487 -0.20892 -4.96004e-15 8.34254e-14 -1.98781e-14 -76.255 -20.4382 25.9344 1.53322 -0.406829 -2.64027 3.15745 42.9597 -7.61663 1.90023e-10 -1.45124e-10 4.7979e-10 3.40299e-10 -2.62279e-10 8.19484e-10 1.90019e-10 -1.45127e-10 4.79802e-10 -7.73091 5.47488 -0.417314 1.90025e-10 -1.45129e-10 4.79783e-10 -2.90554 0.965183 -0.102902 1.9002e-10 -1.45128e-10 4.79789e-10 -10.2786 0.731801 -0.0259123 1.90033e-10 -1.45123e-10 4.79781e-10 -2.22167 -0.733487 0.20892 -2.03217e-16 0.0 -3.88251e-19 6.32487 18.6876 4.78337 -0.0192559 -1.73822 -0.174982 -0.517769 3.92334 -0.0827621 2.03217e-16 0.0 3.88251e-19 12.6107 -53.4759 1.72666 0.181773 30.0573 -0.204557 2.46389 -18.0643 5.6079
35.4883 72.1274 -238.156 -5.5844 -9.3732 8.7383 6.6385 -4.02786 13.0765 -2.46385 -2.10135 3.58833 -2.01977 7.16132 -2.68143 4.64275 -15.4321 -4.35239 -0.0 0.0 0.0 -0.0 0.0 0.0 -8.65738e-14 1.88671e-13 -6.45584e-14 75.7458 37.3144 11.1482 -25.2126 -20.6414 55.9058 -0.0858954 -8.08757 -1.14481 7.3017e-10 -8.22921e-09 1.81166e-09 1.24882e-09 -1.41813e-08 3.13626e-09 7.30176e-10 -8.2292e-09 1.81166e-09 7.73091 5.47488 0.417314 7.30171e-10 -8.22921e-09 1.81166e-09 2.90554 0.965183 0.102902 7.30177e-10 -8.22921e-09 1.81166e-09 10.2786 0.731801 0.0259123 7.30168e-10 -8.22921e-09 1.81166e-09 2.22167 -0.733487 -0.20892 -8.65175e-14 1.88669e-13 -6.47013e-14 -75.2124 -20.0104 26.5826 1.25487 -0.329271 -2.15804 2.91771 41.7852 -7.29242 -1.53308e-10 1.08564e-10 1.30592e-09 -2.32071e-10 1.47096e-10 2.25462e-09 -1.53311e-10 1.08562e-10 1.30593e-09 -7.73091 5.47488 -0.417314 -1.53307e-10 1.08561e-10 1.30592e-09 -2.90554 0.965183 -0.102902 -1.53313e-10 1.08562e-10 1.30592e-09 -10.2786 0.731801 -0.0259123 -1.53301e-10 1.08566e-10 1.30592e-09 -2.22167 -0.733487 0.20892 -2.03217e-16 0.0 -3.88251e-19 5.6667 20.0351 4.61378 -0.0180493 -2.61316 -0.174067 -0.538445 3.15651 -0.466711 2.03217e-16 0.0 3.88251e-19 12.7411 -52.7356 4.30614 0.185466 30.1488 -0.199371 2.18495 -13.0263 6.21472
